<?xml version="1.0" encoding="UTF-8"?>
<svg xmlns="http://www.w3.org/2000/svg" xmlns:xlink="http://www.w3.org/1999/xlink" width="50px" height="111px" viewBox="0 0 50 111" version="1.1">
<g id="surface1">
<path style=" stroke:none;fill-rule:nonzero;fill:rgb(100%,100%,100%);fill-opacity:1;" d="M 11.789062 0.5 L 37.773438 0.5 C 44.0625 0.5 49.160156 5.554688 49.160156 11.792969 L 49.160156 98.949219 C 49.160156 105.1875 44.0625 110.246094 37.773438 110.246094 L 11.789062 110.246094 C 5.5 110.246094 0.402344 105.1875 0.402344 98.949219 L 0.402344 11.792969 C 0.402344 5.554688 5.5 0.5 11.789062 0.5 Z M 11.789062 0.5 "/>
<path style=" stroke:none;fill-rule:nonzero;fill:rgb(78.431373%,6.27451%,18.039216%);fill-opacity:1;" d="M 32.449219 3.628906 C 30.855469 3.628906 29.6875 3.632812 29.617188 3.644531 L 29.441406 3.667969 L 29.820312 3.832031 C 30.324219 4.046875 30.882812 4.378906 31.179688 4.644531 C 31.308594 4.757812 31.523438 5.011719 31.652344 5.207031 C 31.832031 5.476562 31.925781 5.574219 32.046875 5.613281 C 32.4375 5.746094 32.726562 6.058594 32.988281 6.609375 C 33.1875 7.035156 33.257812 7.445312 33.257812 8.152344 C 33.261719 9.128906 33.035156 10.007812 32.503906 11.121094 L 32.261719 11.628906 L 32.4375 11.824219 C 32.808594 12.246094 32.730469 12.632812 32.070312 13.691406 C 31.910156 13.941406 31.734375 14.242188 31.675781 14.359375 C 31.496094 14.703125 31.332031 14.867188 31.058594 14.957031 L 30.8125 15.039062 L 30.492188 15.652344 C 29.714844 17.140625 29.128906 17.933594 28.628906 18.164062 C 28.535156 18.207031 28.433594 18.273438 28.40625 18.3125 C 28.316406 18.425781 28.242188 18.726562 28.246094 18.972656 C 28.246094 19.398438 28.277344 19.429688 29.105469 19.835938 C 29.953125 20.25 30.59375 20.625 31.003906 20.941406 C 31.261719 21.144531 31.285156 21.175781 31.285156 21.34375 C 31.285156 21.492188 31.308594 21.539062 31.410156 21.605469 C 31.773438 21.828125 32.074219 22.03125 32.367188 22.246094 C 32.546875 22.378906 32.972656 22.671875 33.308594 22.894531 C 34.097656 23.417969 34.519531 23.761719 35.007812 24.269531 C 36.546875 25.863281 37.390625 28.203125 37.625 31.496094 C 37.648438 31.863281 37.671875 32.726562 37.671875 33.414062 L 37.671875 34.664062 L 37.832031 35.296875 C 37.992188 35.949219 38.160156 36.8125 38.40625 38.296875 C 38.578125 39.320312 38.746094 40.121094 38.875 40.539062 C 38.925781 40.707031 39.214844 41.351562 39.519531 41.972656 C 40.226562 43.410156 40.464844 43.960938 40.746094 44.796875 C 40.972656 45.472656 41.15625 46.292969 41.230469 46.933594 C 41.410156 48.546875 41.679688 49.832031 41.875 50.046875 C 41.902344 50.082031 42.164062 50.167969 42.453125 50.246094 C 42.742188 50.320312 43.109375 50.441406 43.265625 50.515625 C 43.535156 50.640625 43.558594 50.667969 43.703125 50.960938 L 43.851562 51.277344 L 44.382812 51.542969 C 44.671875 51.6875 44.96875 51.863281 45.039062 51.933594 C 45.210938 52.09375 45.335938 52.34375 45.375 52.59375 C 45.390625 52.703125 45.46875 52.886719 45.546875 53 C 45.859375 53.453125 46.324219 54.320312 46.367188 54.527344 C 46.375 54.558594 46.386719 44.949219 46.390625 33.175781 C 46.40625 9.640625 46.425781 11.308594 46.128906 10.164062 C 45.882812 9.214844 45.46875 8.296875 44.914062 7.472656 C 43.554688 5.460938 41.484375 4.152344 38.980469 3.71875 C 38.570312 3.648438 38.0625 3.640625 34.15625 3.628906 C 33.554688 3.628906 32.976562 3.628906 32.449219 3.628906 Z M 31.785156 32.738281 C 31.558594 32.738281 29.917969 33.71875 28.957031 34.433594 C 28.589844 34.707031 28.535156 34.769531 28.382812 35.074219 C 28.152344 35.539062 27.273438 37.738281 26.351562 40.15625 L 25.933594 41.261719 L 25.917969 41.777344 C 25.902344 42.253906 25.90625 42.292969 25.984375 42.292969 C 26.113281 42.296875 26.503906 42.539062 26.738281 42.761719 C 27.199219 43.207031 27.480469 43.769531 27.855469 44.980469 C 28.148438 45.9375 28.855469 48.410156 29.453125 50.5625 L 30.054688 52.738281 L 30.242188 53.421875 L 29.976562 53.683594 L 29.707031 53.941406 L 29.8125 54.332031 C 29.871094 54.546875 29.980469 54.9375 30.050781 55.203125 C 30.910156 58.328125 31.304688 60.605469 31.699219 64.644531 C 31.886719 66.570312 32.027344 67.242188 32.476562 68.320312 C 32.910156 69.367188 33.382812 70.292969 33.976562 71.28125 C 34.820312 72.679688 35.296875 73.679688 35.566406 74.605469 C 35.832031 75.527344 36.175781 77.253906 36.570312 79.667969 C 37.085938 82.832031 37.265625 83.886719 37.34375 84.1875 C 37.417969 84.464844 37.496094 84.601562 37.863281 85.097656 C 38.492188 85.949219 38.640625 86.175781 38.949219 86.765625 C 39.453125 87.722656 39.582031 88.300781 39.445312 89.015625 C 39.40625 89.230469 39.289062 89.746094 39.1875 90.164062 C 38.699219 92.152344 38.609375 93.101562 38.816406 94.027344 C 38.84375 94.144531 38.945312 94.746094 39.050781 95.367188 C 39.257812 96.625 39.390625 97.148438 39.570312 97.410156 C 39.726562 97.640625 39.878906 98.105469 39.875 98.351562 C 39.875 98.460938 39.835938 98.640625 39.785156 98.75 C 39.734375 98.859375 39.695312 98.980469 39.695312 99.019531 C 39.695312 99.058594 39.898438 99.714844 40.152344 100.472656 C 40.402344 101.234375 40.660156 102.042969 40.726562 102.269531 C 41.234375 104.074219 41.222656 105.539062 40.695312 106.589844 C 40.332031 107.3125 39.882812 107.792969 39.066406 108.347656 C 38.996094 108.398438 39.015625 108.402344 39.210938 108.378906 C 39.515625 108.34375 40.082031 108.199219 40.578125 108.03125 C 41.859375 107.601562 43.140625 106.761719 44.109375 105.714844 C 45.347656 104.378906 46.15625 102.601562 46.355469 100.769531 C 46.386719 100.460938 46.402344 94.046875 46.402344 80.324219 L 46.402344 60.324219 L 46.253906 60.648438 C 46.066406 61.058594 45.617188 61.8125 45.363281 62.144531 C 44.632812 63.101562 43.625 63.917969 42.53125 64.4375 C 39.960938 65.664062 36.96875 65.40625 34.640625 63.757812 C 34.082031 63.363281 33.234375 62.515625 32.835938 61.957031 C 31.214844 59.667969 30.941406 56.703125 32.117188 54.15625 C 33 52.234375 34.769531 50.671875 36.753906 50.054688 C 37.019531 49.972656 37.253906 49.890625 37.277344 49.871094 C 37.328125 49.824219 37.21875 49.550781 36.609375 48.21875 C 36.128906 47.160156 35.492188 45.84375 34.445312 43.738281 C 33.871094 42.582031 33.789062 42.335938 33.449219 40.824219 C 33.125 39.378906 32.585938 36.617188 32.113281 33.953125 C 31.886719 32.691406 31.898438 32.738281 31.785156 32.738281 Z M 31.785156 32.738281 "/>
<path style=" stroke:none;fill-rule:nonzero;fill:rgb(11.372549%,25.882353%,54.117647%);fill-opacity:1;" d="M 19.011719 3.613281 C 15.28125 3.613281 11.484375 3.628906 11.171875 3.65625 C 9.089844 3.847656 7.304688 4.652344 5.832031 6.070312 C 4.414062 7.4375 3.589844 9.007812 3.21875 11.054688 C 3.148438 11.460938 3.140625 14.277344 3.125 55.414062 C 3.117188 85.25 3.125 99.605469 3.160156 100.183594 C 3.289062 102.5 4.101562 104.34375 5.707031 105.949219 C 7.222656 107.464844 9.128906 108.34375 11.238281 108.496094 C 11.867188 108.539062 37.625 108.550781 37.625 108.507812 C 37.625 108.488281 37.5 108.390625 37.34375 108.289062 C 36.765625 107.90625 36.300781 107.273438 36.132812 106.632812 C 35.925781 105.847656 35.9375 104.964844 36.179688 102.960938 C 36.390625 101.207031 36.523438 99.816406 36.554688 98.960938 L 36.582031 98.117188 L 36.335938 97.851562 C 35.808594 97.28125 35.703125 96.855469 35.941406 96.289062 C 36.007812 96.132812 36.0625 95.953125 36.0625 95.894531 C 36.0625 95.726562 35.820312 94.9375 35.589844 94.371094 C 35.324219 93.710938 34.925781 92.921875 34.3125 91.835938 C 33.429688 90.277344 33.25 89.855469 33.246094 89.339844 C 33.242188 89.011719 33.304688 88.851562 33.535156 88.589844 L 33.671875 88.433594 L 33.539062 88.046875 C 33.367188 87.539062 33.1875 87.09375 32.824219 86.273438 L 32.523438 85.59375 L 32.105469 85.34375 C 30.417969 84.34375 28.371094 82.796875 26.371094 81 C 25.777344 80.464844 24.71875 79.445312 23.839844 78.5625 C 23.296875 78.015625 22.460938 77.222656 21.980469 76.800781 C 21.121094 76.046875 20.800781 75.714844 20.65625 75.441406 C 20.617188 75.363281 20.464844 75.167969 20.320312 75.003906 C 18.453125 72.890625 14.253906 66.703125 12.851562 63.996094 C 12.699219 63.695312 12.566406 63.445312 12.558594 63.4375 C 12.554688 63.433594 12.058594 63.355469 11.457031 63.269531 C 10.855469 63.183594 10.347656 63.09375 10.328125 63.074219 C 10.3125 63.054688 10.21875 62.78125 10.128906 62.46875 C 9.761719 61.242188 9.296875 60.210938 7.964844 57.683594 C 6.0625 54.078125 5.570312 52.257812 5.847656 49.898438 C 6.027344 48.382812 6.53125 46 6.789062 45.460938 C 6.941406 45.132812 7.296875 44.695312 7.84375 44.160156 L 8.351562 43.65625 L 8.351562 42.539062 L 7.125 42.539062 C 5.496094 42.539062 5.027344 42.46875 4.6875 42.175781 C 4.480469 42 4.441406 41.902344 4.261719 41.105469 C 4.207031 40.871094 4.089844 40.5 4 40.277344 C 3.644531 39.394531 3.621094 39.050781 3.871094 38.265625 C 3.957031 37.992188 4.0625 37.636719 4.101562 37.472656 C 4.472656 36.019531 5.402344 33.820312 7.203125 30.140625 C 7.515625 29.507812 7.835938 28.796875 7.917969 28.554688 C 8.46875 26.964844 8.988281 25.707031 9.535156 24.652344 C 10.734375 22.316406 11.660156 20.925781 12.609375 20.007812 C 13.097656 19.539062 13.460938 19.285156 14.023438 19.023438 C 14.785156 18.664062 15.347656 18.550781 17.199219 18.378906 L 18.4375 18.265625 L 18.578125 18.109375 L 18.714844 17.953125 L 19.3125 17.925781 C 21.292969 17.828125 22.003906 17.582031 22.34375 16.867188 C 22.511719 16.511719 22.582031 16.128906 22.761719 14.6875 C 22.847656 13.964844 22.925781 13.339844 22.933594 13.304688 C 22.9375 13.261719 22.914062 13.238281 22.863281 13.246094 C 22.441406 13.316406 22.089844 12.382812 22.078125 11.167969 C 22.066406 10.183594 22.210938 9.960938 22.890625 9.910156 L 23.265625 9.878906 L 23.273438 9.535156 C 23.296875 8.785156 23.390625 7.695312 23.476562 7.195312 C 23.671875 6.046875 23.929688 5.484375 24.546875 4.871094 C 24.996094 4.425781 25.453125 4.128906 26.121094 3.84375 C 26.351562 3.746094 26.480469 3.667969 26.445312 3.648438 C 26.402344 3.621094 22.738281 3.605469 19.007812 3.609375 Z M 8.628906 87.183594 L 11.558594 87.183594 L 11.632812 87.582031 C 11.671875 87.804688 11.808594 88.566406 11.9375 89.273438 C 12.066406 89.980469 12.253906 91.011719 12.351562 91.570312 C 12.453125 92.125 12.722656 93.601562 12.949219 94.855469 C 13.175781 96.105469 13.46875 97.722656 13.597656 98.449219 C 13.730469 99.175781 13.84375 99.761719 13.855469 99.753906 C 13.867188 99.738281 13.800781 98.53125 13.707031 97.175781 C 13.671875 96.675781 13.644531 96.167969 13.613281 95.589844 C 13.597656 95.296875 13.578125 94.9375 13.570312 94.785156 C 13.558594 94.632812 13.539062 94.128906 13.523438 93.660156 C 13.507812 93.191406 13.484375 92.707031 13.472656 92.578125 C 13.464844 92.453125 13.441406 91.1875 13.425781 89.765625 L 13.398438 87.183594 L 15.292969 87.183594 L 15.292969 103.03125 L 12.601562 103.03125 L 12.378906 101.824219 C 12.257812 101.160156 12.003906 99.804688 11.820312 98.804688 C 11.632812 97.804688 11.347656 96.246094 11.179688 95.335938 C 10.742188 92.964844 10.523438 91.785156 10.394531 91.15625 L 10.285156 90.605469 L 10.304688 91.039062 C 10.320312 91.28125 10.347656 92.085938 10.375 92.832031 C 10.398438 93.578125 10.429688 94.4375 10.441406 94.738281 C 10.460938 95.132812 10.480469 101.972656 10.46875 102.949219 C 10.464844 103.023438 10.390625 103.03125 9.546875 103.03125 L 8.628906 103.03125 Z M 16.761719 87.183594 L 18.453125 87.183594 C 19.378906 87.183594 20.273438 87.203125 20.4375 87.226562 C 21.433594 87.382812 22.136719 87.9375 22.457031 88.816406 C 22.675781 89.421875 22.699219 89.726562 22.679688 91.777344 C 22.664062 93.359375 22.648438 93.675781 22.582031 93.914062 C 22.453125 94.371094 22.277344 94.675781 21.980469 94.96875 L 21.703125 95.246094 L 21.957031 95.496094 C 22.257812 95.792969 22.421875 96.074219 22.566406 96.527344 C 22.664062 96.84375 22.667969 96.914062 22.667969 98.78125 C 22.667969 100.941406 22.664062 100.976562 22.332031 101.652344 C 22.023438 102.28125 21.492188 102.707031 20.734375 102.921875 C 20.503906 102.988281 20.179688 103.003906 18.613281 103.019531 L 16.761719 103.042969 Z M 25.269531 87.183594 L 28.289062 87.183594 L 28.316406 87.355469 C 28.332031 87.449219 28.457031 88.519531 28.597656 89.730469 C 28.738281 90.945312 29.027344 93.433594 29.238281 95.265625 C 30.058594 102.304688 30.136719 102.957031 30.136719 102.996094 C 30.136719 103.011719 29.640625 103.03125 29.035156 103.03125 L 27.933594 103.03125 L 27.910156 102.882812 C 27.898438 102.800781 27.84375 102.195312 27.792969 101.539062 C 27.742188 100.882812 27.6875 100.226562 27.671875 100.078125 L 27.644531 99.816406 L 26.707031 99.816406 C 25.773438 99.816406 25.769531 99.816406 25.75 99.917969 C 25.738281 99.976562 25.683594 100.582031 25.632812 101.261719 C 25.578125 101.945312 25.523438 102.621094 25.507812 102.765625 L 25.480469 103.03125 L 23.378906 103.03125 L 23.378906 102.894531 C 23.378906 102.78125 23.695312 100.117188 24 97.632812 C 24.039062 97.328125 24.304688 95.097656 24.597656 92.671875 C 25.199219 87.652344 25.214844 87.535156 25.246094 87.332031 L 25.269531 87.179688 Z M 26.648438 88.960938 C 26.640625 88.960938 26.632812 88.96875 26.625 88.976562 C 26.617188 88.988281 26.59375 89.183594 26.578125 89.410156 C 26.5625 89.636719 26.539062 89.957031 26.527344 90.121094 C 26.511719 90.285156 26.441406 91.246094 26.363281 92.257812 C 26.289062 93.269531 26.152344 94.949219 26.0625 95.992188 C 25.972656 97.035156 25.90625 97.914062 25.921875 97.945312 C 25.9375 97.984375 26.144531 98 26.703125 98 C 27.121094 98 27.472656 97.988281 27.488281 97.972656 C 27.503906 97.960938 27.453125 97.257812 27.378906 96.414062 C 26.777344 89.636719 26.714844 88.960938 26.648438 88.960938 Z M 18.875 89.195312 L 18.875 91.785156 C 18.875 93.210938 18.886719 94.386719 18.894531 94.398438 C 18.90625 94.40625 19.167969 94.410156 19.480469 94.402344 C 20.132812 94.382812 20.292969 94.328125 20.449219 94.078125 L 20.554688 93.914062 L 20.554688 91.824219 C 20.554688 89.816406 20.550781 89.726562 20.460938 89.578125 C 20.277344 89.265625 20.179688 89.230469 19.492188 89.210938 Z M 18.875 96.128906 L 18.875 101.007812 L 19.417969 101.007812 C 20.074219 101.007812 20.300781 100.921875 20.460938 100.617188 C 20.550781 100.441406 20.554688 100.363281 20.554688 98.550781 C 20.554688 96.742188 20.550781 96.660156 20.460938 96.507812 C 20.308594 96.246094 20.09375 96.167969 19.4375 96.148438 L 18.875 96.132812 Z M 18.875 96.128906 "/>
</g>
</svg>
